<svg width="16" height="16" viewBox="0 0 16 16" fill="none" xmlns="http://www.w3.org/2000/svg">
<rect x="1" y="12" width="1" height="1" fill="#FFA800"/>
<rect x="2" y="12" width="1" height="1" fill="#FFA800"/>
<rect x="2" y="13" width="1" height="1" fill="#FFA800"/>
<rect x="3" y="12" width="1" height="1" fill="#FFA800"/>
<rect x="10" y="12" width="1" height="1" fill="white"/>
<rect x="10" y="13" width="1" height="1" fill="white"/>
<rect x="11" y="13" width="1" height="1" fill="white"/>
<rect x="9" y="13" width="1" height="1" fill="white"/>
<rect x="7" y="13" width="1" height="1" fill="white"/>
<rect x="6" y="13" width="1" height="1" fill="white"/>
<rect x="5" y="13" width="1" height="1" fill="white"/>
<rect x="6" y="12" width="1" height="1" fill="white"/>
<rect width="5" height="1" transform="matrix(-1 0 0 1 11 11)" fill="black"/>
<rect width="3" height="1" transform="matrix(-1 0 0 1 8 14)" fill="black"/>
<rect width="1" height="1" transform="matrix(-1 0 0 1 6 12)" fill="black"/>
<rect width="1" height="2" transform="matrix(-1 0 0 1 4 13)" fill="black"/>
<rect width="1" height="1" transform="matrix(-1 0 0 1 3 14)" fill="black"/>
<rect width="1" height="1" transform="matrix(-1 0 0 1 2 13)" fill="black"/>
<rect width="1" height="1" transform="matrix(-1 0 0 1 1 12)" fill="black"/>
<rect width="1" height="3" transform="matrix(-1 0 0 1 5 12)" fill="black"/>
<rect width="1" height="1" transform="matrix(-1 0 0 1 8 12)" fill="black"/>
<rect width="1" height="1" transform="matrix(-1 0 0 1 10 12)" fill="black"/>
<rect width="1" height="1" transform="matrix(-1 0 0 1 12 12)" fill="black"/>
<rect width="1" height="3" transform="matrix(-1 0 0 1 13 12)" fill="black"/>
<rect width="1" height="3" transform="matrix(-1 0 0 1 9 12)" fill="black"/>
<rect width="3" height="1" transform="matrix(-1 0 0 1 12 14)" fill="black"/>
<rect x="4" y="2" width="1" height="1" fill="white"/>
<rect x="4" y="3" width="1" height="1" fill="white"/>
<rect x="3" y="2" width="1" height="1" fill="white"/>
<rect x="4" y="1" width="1" height="1" fill="white"/>
<rect x="5" y="2" width="1" height="1" fill="white"/>
<rect x="7" y="5" width="1" height="1" fill="white"/>
<rect x="5" y="5" width="1" height="1" fill="white"/>
<rect x="5" y="6" width="1" height="1" fill="white"/>
<rect x="2" y="6" width="1" height="1" fill="white"/>
<rect x="1" y="6" width="1" height="1" fill="white"/>
<rect x="5" y="7" width="1" height="1" fill="white"/>
<rect x="2" y="7" width="1" height="1" fill="white"/>
<rect x="1" y="7" width="1" height="1" fill="white"/>
<rect x="2" y="8" width="1" height="1" fill="white"/>
<rect x="1" y="8" width="1" height="1" fill="white"/>
<rect x="2" y="10" width="1" height="1" fill="white"/>
<rect x="1" y="10" width="1" height="1" fill="white"/>
<rect x="5" y="8" width="1" height="1" fill="white"/>
<rect x="5" y="9" width="1" height="1" fill="white"/>
<rect x="6" y="5" width="1" height="1" fill="white"/>
<rect x="6" y="6" width="1" height="1" fill="white"/>
<rect x="3" y="6" width="1" height="1" fill="white"/>
<rect x="6" y="9" width="1" height="1" fill="white"/>
<rect x="8" y="5" width="1" height="1" fill="white"/>
<rect x="9" y="5" width="1" height="1" fill="white"/>
<rect x="10" y="5" width="1" height="1" fill="white"/>
<rect x="11" y="5" width="1" height="1" fill="white"/>
<rect x="12" y="5" width="1" height="1" fill="white"/>
<rect x="13" y="5" width="1" height="1" fill="white"/>
<rect x="14" y="5" width="1" height="1" fill="white"/>
<rect x="10" y="8" width="1" height="1" fill="white"/>
<rect x="10" y="7" width="1" height="1" fill="white"/>
<rect x="10" y="6" width="1" height="1" fill="white"/>
<rect x="8" y="8" width="1" height="1" fill="white"/>
<rect x="9" y="8" width="1" height="1" fill="white"/>
<rect x="7" y="4" width="1" height="1" fill="white"/>
<rect x="6" y="4" width="1" height="1" fill="white"/>
<rect x="6" y="8" width="1" height="1" fill="white"/>
<rect x="6" y="7" width="1" height="1" fill="white"/>
<rect x="3" y="7" width="1" height="1" fill="white"/>
<rect x="3" y="8" width="1" height="1" fill="white"/>
<rect x="3" y="10" width="1" height="1" fill="white"/>
<rect x="11" y="8" width="1" height="1" fill="white"/>
<rect x="11" y="7" width="1" height="1" fill="white"/>
<rect x="12" y="8" width="1" height="1" fill="white"/>
<rect x="12" y="7" width="1" height="1" fill="white"/>
<rect x="13" y="7" width="1" height="1" fill="white"/>
<rect x="9" y="6" width="1" height="1" fill="white"/>
<rect x="8" y="4" width="1" height="1" fill="white"/>
<rect x="9" y="4" width="1" height="1" fill="white"/>
<rect x="10" y="4" width="1" height="1" fill="white"/>
<rect x="11" y="4" width="1" height="1" fill="white"/>
<rect x="11" y="9" width="1" height="1" fill="white"/>
<rect x="7" y="8" width="1" height="1" fill="white"/>
<rect x="7" y="9" width="1" height="1" fill="white"/>
<rect x="7" y="10" width="1" height="1" fill="white"/>
<rect x="6" y="10" width="1" height="1" fill="white"/>
<rect x="8" y="9" width="1" height="1" fill="white"/>
<rect x="8" y="10" width="1" height="1" fill="white"/>
<rect x="9" y="10" width="1" height="1" fill="white"/>
<rect x="10" y="10" width="1" height="1" fill="white"/>
<rect x="9" y="9" width="1" height="1" fill="white"/>
<rect x="10" y="9" width="1" height="1" fill="white"/>
<rect width="4" height="1" transform="matrix(-1 0 0 1 4 9)" fill="black"/>
<rect width="2" height="1" transform="matrix(-1 0 0 1 9 6)" fill="black"/>
<rect width="1" height="1" transform="matrix(-1 0 0 1 6 4)" fill="black"/>
<rect width="7" height="1" transform="matrix(-1 0 0 1 12 3)" fill="black"/>
<rect width="1" height="1" transform="matrix(-1 0 0 1 6 1)" fill="black"/>
<rect width="1" height="1" transform="matrix(-1 0 0 1 4 1)" fill="black"/>
<rect width="1" height="1" transform="matrix(-1 0 0 1 4 3)" fill="black"/>
<rect width="1" height="1" transform="matrix(-1 0 0 1 5 4)" fill="black"/>
<rect width="3" height="1" transform="matrix(-1 0 0 1 4 5)" fill="black"/>
<rect width="1" height="4" transform="matrix(-1 0 0 1 1 5)" fill="black"/>
<rect width="1" height="1" transform="matrix(-1 0 0 1 1 10)" fill="black"/>
<rect width="1" height="2" transform="matrix(-1 0 0 1 5 9)" fill="black"/>
<rect width="3" height="1" transform="matrix(-1 0 0 1 4 11)" fill="black"/>
<rect width="1" height="4" transform="matrix(-1 0 0 1 5 5)" fill="black"/>
<rect width="4" height="1" transform="matrix(-1 0 0 1 15 6)" fill="black"/>
<rect width="1" height="3" transform="matrix(-1 0 0 1 16 4)" fill="black"/>
<rect width="1" height="1" transform="matrix(-1 0 0 1 15 7)" fill="black"/>
<rect width="2" height="1" transform="matrix(-1 0 0 1 14 8)" fill="black"/>
<rect width="1" height="1" transform="matrix(-1 0 0 1 13 9)" fill="black"/>
<rect width="1" height="1" transform="matrix(-1 0 0 1 12 10)" fill="black"/>
<rect width="1" height="1" transform="matrix(-1 0 0 1 6 10)" fill="black"/>
<rect width="3" height="1" transform="matrix(-1 0 0 1 15 4)" fill="black"/>
<rect width="2" height="1" transform="matrix(-1 0 0 1 9 7)" fill="black"/>
<rect x="9" y="7" width="1" height="1" fill="white"/>
<rect x="8" y="7" width="1" height="1" fill="white"/>
</svg>
